0
SECTION
2
HEADER
9
$INSUNITS
70
4
0
ENDSEC
0
SECTION
2
TABLES
0
TABLE
2
LTYPE
0
LTYPE
72
65
70
0
2
CONTINUOUS
3
______
73
0
40
0
0
LTYPE
72
65
70
0
2
DASHED
3
_ _ _ 
73
2
40
7.5
49
5
49
-2.5
0
LTYPE
72
65
70
0
2
DOTTED
3
. . . 
73
2
40
1.5
49
0.5
49
-1
0
ENDTAB
0
TABLE
2
LAYER
0
ENDTAB
0
ENDSEC
0
SECTION
2
ENTITIES
0
LINE
8
0
6
CONTINUOUS
10
56.5729879
20
-126.5544036
11
80.309243
21
-37.9694937
0
LINE
8
0
6
CONTINUOUS
10
85.9080801
20
-34.3231112
11
150.0498221
21
-44.3096635
0
LINE
8
0
6
CONTINUOUS
10
151.1936972
20
-44.630605
11
185.1333377
21
-58.6859898
0
LINE
8
0
6
CONTINUOUS
10
187.0464207
20
-59.0664537
11
219.3854327
21
-59.0664537
0
LINE
8
0
6
CONTINUOUS
10
221.2985157
20
-58.6859898
11
255.2381562
21
-44.630605
0
LINE
8
0
6
CONTINUOUS
10
256.3820313
20
-44.3096635
11
320.5237733
21
-34.3231112
0
LINE
8
0
6
CONTINUOUS
10
326.1226104
20
-37.9694937
11
349.8588655
21
-126.5544036
0
LINE
8
0
6
CONTINUOUS
10
346.3233314
20
-132.6781278
11
321.2000828
21
-139.409882
0
LINE
8
0
6
CONTINUOUS
10
320.1106213
20
-139.8442115
11
263.6141692
21
-170.4820495
0
LINE
8
0
6
CONTINUOUS
10
263.4977258
20
-170.5472221
11
213.6202705
21
-199.3439844
0
LINE
8
0
6
CONTINUOUS
10
211.1202705
20
-200.0138574
11
195.3115829
21
-200.0138574
0
LINE
8
0
6
CONTINUOUS
10
192.8115829
20
-199.3439844
11
142.9341276
21
-170.5472221
0
LINE
8
0
6
CONTINUOUS
10
142.8176842
20
-170.4820495
11
86.3212321
21
-139.8442115
0
LINE
8
0
6
CONTINUOUS
10
85.2317706
20
-139.409882
11
60.108522
21
-132.6781278
0
ARC
8
0
6
CONTINUOUS
10
85.1388721
20
-39.2635888
40
5
50
81.1503808
51
165.0000021
0
ARC
8
0
6
CONTINUOUS
10
149.2806141
20
-49.2501411
40
5
50
67.5041444
51
81.1503808
0
ARC
8
0
6
CONTINUOUS
10
187.0464207
20
-54.0664537
40
5
50
247.5041444
51
270
0
ARC
8
0
6
CONTINUOUS
10
219.3854327
20
-54.0664537
40
5
50
270
51
292.4958556
0
ARC
8
0
6
CONTINUOUS
10
257.1512393
20
-49.2501411
40
5
50
98.8496192
51
112.4958556
0
ARC
8
0
6
CONTINUOUS
10
321.2929813
20
-39.2635888
40
5
50
14.9999979
51
98.8496192
0
ARC
8
0
6
CONTINUOUS
10
345.0292364
20
-127.8484986
40
5
50
284.9999979
51
14.9999979
0
ARC
8
0
6
CONTINUOUS
10
322.4941779
20
-144.2395112
40
5
50
104.9999979
51
118.4708316
0
ARC
8
0
6
CONTINUOUS
10
265.9977258
20
-174.8773491
40
5
50
118.4708316
51
120.0000001
0
ARC
8
0
6
CONTINUOUS
10
211.1202705
20
-195.0138574
40
5
50
270
51
300.0000001
0
ARC
8
0
6
CONTINUOUS
10
195.3115829
20
-195.0138574
40
5
50
239.9999999
51
270
0
ARC
8
0
6
CONTINUOUS
10
140.4341276
20
-174.8773491
40
5
50
59.9999999
51
61.5291684
0
ARC
8
0
6
CONTINUOUS
10
83.9376755
20
-144.2395112
40
5
50
61.5291684
51
75.0000021
0
ARC
8
0
6
CONTINUOUS
10
61.402617
20
-127.8484986
40
5
50
165.0000021
51
255.0000021
0
ENDSEC
0
EOF