0
SECTION
2
HEADER
9
$INSUNITS
70
4
0
ENDSEC
0
SECTION
2
TABLES
0
TABLE
2
LTYPE
0
LTYPE
72
65
70
0
2
CONTINUOUS
3
______
73
0
40
0
0
LTYPE
72
65
70
0
2
DASHED
3
_ _ _ 
73
2
40
7.5
49
5
49
-2.5
0
LTYPE
72
65
70
0
2
DOTTED
3
. . . 
73
2
40
1.5
49
0.5
49
-1
0
ENDTAB
0
TABLE
2
LAYER
0
ENDTAB
0
ENDSEC
0
SECTION
2
ENTITIES
0
LINE
8
0
6
CONTINUOUS
10
59.381788
20
-129.0152248
11
77.2514158
21
-133.8033772
0
LINE
8
0
6
CONTINUOUS
10
77.2514158
20
-133.8033772
11
82.0395682
21
-115.9337494
0
LINE
8
0
6
CONTINUOUS
10
82.0395682
20
-115.9337494
11
64.1699404
21
-111.145597
0
LINE
8
0
6
CONTINUOUS
10
64.1699404
20
-111.145597
11
59.381788
21
-129.0152248
0
LINE
8
0
6
CONTINUOUS
10
64.2993499
20
-110.6626341
11
82.1689777
21
-115.4507865
0
LINE
8
0
6
CONTINUOUS
10
82.1689777
20
-115.4507865
11
86.9571301
21
-97.5811587
0
LINE
8
0
6
CONTINUOUS
10
86.9571301
20
-97.5811587
11
69.0875023
21
-92.7930063
0
LINE
8
0
6
CONTINUOUS
10
69.0875023
20
-92.7930063
11
64.2993499
21
-110.6626341
0
LINE
8
0
6
CONTINUOUS
10
69.2169117
20
-92.3100434
11
87.0865395
21
-97.0981958
0
LINE
8
0
6
CONTINUOUS
10
87.0865395
20
-97.0981958
11
91.8746919
21
-79.228568
0
LINE
8
0
6
CONTINUOUS
10
91.8746919
20
-79.228568
11
74.0050641
21
-74.4404156
0
LINE
8
0
6
CONTINUOUS
10
74.0050641
20
-74.4404156
11
69.2169117
21
-92.3100434
0
LINE
8
0
6
CONTINUOUS
10
74.1344736
20
-73.9574527
11
92.0041014
21
-78.7456051
0
LINE
8
0
6
CONTINUOUS
10
92.0041014
20
-78.7456051
11
96.7922538
21
-60.8759773
0
LINE
8
0
6
CONTINUOUS
10
96.7922538
20
-60.8759773
11
78.922626
21
-56.0878249
0
LINE
8
0
6
CONTINUOUS
10
78.922626
20
-56.0878249
11
74.1344736
21
-73.9574527
0
LINE
8
0
6
CONTINUOUS
10
79.0520354
20
-55.604862
11
96.9216632
21
-60.3930144
0
LINE
8
0
6
CONTINUOUS
10
96.9216632
20
-60.3930144
11
101.7098156
21
-42.5233866
0
LINE
8
0
6
CONTINUOUS
10
101.7098156
20
-42.5233866
11
83.8401878
21
-37.7352342
0
LINE
8
0
6
CONTINUOUS
10
83.8401878
20
-37.7352342
11
79.0520354
21
-55.604862
0
LINE
8
0
6
CONTINUOUS
10
77.7343787
20
-133.9327867
11
95.6040065
21
-138.7209391
0
LINE
8
0
6
CONTINUOUS
10
95.6040065
20
-138.7209391
11
100.3921589
21
-120.8513113
0
LINE
8
0
6
CONTINUOUS
10
100.3921589
20
-120.8513113
11
82.5225311
21
-116.0631589
0
LINE
8
0
6
CONTINUOUS
10
82.5225311
20
-116.0631589
11
77.7343787
21
-133.9327867
0
LINE
8
0
6
CONTINUOUS
10
82.6519406
20
-115.580196
11
100.5215684
21
-120.3683484
0
LINE
8
0
6
CONTINUOUS
10
100.5215684
20
-120.3683484
11
105.3097208
21
-102.4987206
0
LINE
8
0
6
CONTINUOUS
10
105.3097208
20
-102.4987206
11
87.440093
21
-97.7105682
0
LINE
8
0
6
CONTINUOUS
10
87.440093
20
-97.7105682
11
82.6519406
21
-115.580196
0
LINE
8
0
6
CONTINUOUS
10
87.5695024
20
-97.2276053
11
105.4391302
21
-102.0157577
0
LINE
8
0
6
CONTINUOUS
10
105.4391302
20
-102.0157577
11
110.2272826
21
-84.1461299
0
LINE
8
0
6
CONTINUOUS
10
110.2272826
20
-84.1461299
11
92.3576548
21
-79.3579775
0
LINE
8
0
6
CONTINUOUS
10
92.3576548
20
-79.3579775
11
87.5695024
21
-97.2276053
0
LINE
8
0
6
CONTINUOUS
10
92.4870643
20
-78.8750146
11
110.3566921
21
-83.663167
0
LINE
8
0
6
CONTINUOUS
10
110.3566921
20
-83.663167
11
115.1448445
21
-65.7935392
0
LINE
8
0
6
CONTINUOUS
10
115.1448445
20
-65.7935392
11
97.2752167
21
-61.0053868
0
LINE
8
0
6
CONTINUOUS
10
97.2752167
20
-61.0053868
11
92.4870643
21
-78.8750146
0
LINE
8
0
6
CONTINUOUS
10
97.4046261
20
-60.5224239
11
115.2742539
21
-65.3105763
0
LINE
8
0
6
CONTINUOUS
10
115.2742539
20
-65.3105763
11
120.0624063
21
-47.4409485
0
LINE
8
0
6
CONTINUOUS
10
120.0624063
20
-47.4409485
11
102.1927785
21
-42.6527961
0
LINE
8
0
6
CONTINUOUS
10
102.1927785
20
-42.6527961
11
97.4046261
21
-60.5224239
0
LINE
8
0
6
CONTINUOUS
10
97.3810646
20
-134.0207194
11
115.2506924
21
-138.8088718
0
LINE
8
0
6
CONTINUOUS
10
115.2506924
20
-138.8088718
11
120.0388448
21
-120.939244
0
LINE
8
0
6
CONTINUOUS
10
120.0388448
20
-120.939244
11
102.169217
21
-116.1510916
0
LINE
8
0
6
CONTINUOUS
10
102.169217
20
-116.1510916
11
97.3810646
21
-134.0207194
0
LINE
8
0
6
CONTINUOUS
10
102.2986265
20
-115.6681287
11
120.1682543
21
-120.4562811
0
LINE
8
0
6
CONTINUOUS
10
120.1682543
20
-120.4562811
11
124.9564067
21
-102.5866533
0
LINE
8
0
6
CONTINUOUS
10
124.9564067
20
-102.5866533
11
107.0867789
21
-97.7985009
0
LINE
8
0
6
CONTINUOUS
10
107.0867789
20
-97.7985009
11
102.2986265
21
-115.6681287
0
LINE
8
0
6
CONTINUOUS
10
107.2161884
20
-97.315538
11
125.0858162
21
-102.1036904
0
LINE
8
0
6
CONTINUOUS
10
125.0858162
20
-102.1036904
11
129.8739686
21
-84.2340626
0
LINE
8
0
6
CONTINUOUS
10
129.8739686
20
-84.2340626
11
112.0043408
21
-79.4459102
0
LINE
8
0
6
CONTINUOUS
10
112.0043408
20
-79.4459102
11
107.2161884
21
-97.315538
0
LINE
8
0
6
CONTINUOUS
10
112.1337502
20
-78.9629473
11
130.003378
21
-83.7510997
0
LINE
8
0
6
CONTINUOUS
10
130.003378
20
-83.7510997
11
134.7915304
21
-65.8814719
0
LINE
8
0
6
CONTINUOUS
10
134.7915304
20
-65.8814719
11
116.9219026
21
-61.0933195
0
LINE
8
0
6
CONTINUOUS
10
116.9219026
20
-61.0933195
11
112.1337502
21
-78.9629473
0
LINE
8
0
6
CONTINUOUS
10
117.0513121
20
-60.6103566
11
134.9209399
21
-65.398509
0
LINE
8
0
6
CONTINUOUS
10
134.9209399
20
-65.398509
11
139.7090923
21
-47.5288812
0
LINE
8
0
6
CONTINUOUS
10
139.7090923
20
-47.5288812
11
121.8394645
21
-42.7407288
0
LINE
8
0
6
CONTINUOUS
10
121.8394645
20
-42.7407288
11
117.0513121
21
-60.6103566
0
LINE
8
0
6
CONTINUOUS
10
116.380703
20
-136.5234667
11
134.2503308
21
-141.3116191
0
LINE
8
0
6
CONTINUOUS
10
134.2503308
20
-141.3116191
11
139.0384832
21
-123.4419913
0
LINE
8
0
6
CONTINUOUS
10
139.0384832
20
-123.4419913
11
121.1688554
21
-118.6538389
0
LINE
8
0
6
CONTINUOUS
10
121.1688554
20
-118.6538389
11
116.380703
21
-136.5234667
0
LINE
8
0
6
CONTINUOUS
10
121.2982648
20
-118.170876
11
139.1678926
21
-122.9590284
0
LINE
8
0
6
CONTINUOUS
10
139.1678926
20
-122.9590284
11
143.956045
21
-105.0894006
0
LINE
8
0
6
CONTINUOUS
10
143.956045
20
-105.0894006
11
126.0864172
21
-100.3012482
0
LINE
8
0
6
CONTINUOUS
10
126.0864172
20
-100.3012482
11
121.2982648
21
-118.170876
0
LINE
8
0
6
CONTINUOUS
10
126.2158267
20
-99.8182853
11
144.0854545
21
-104.6064377
0
LINE
8
0
6
CONTINUOUS
10
144.0854545
20
-104.6064377
11
148.8736069
21
-86.7368099
0
LINE
8
0
6
CONTINUOUS
10
148.8736069
20
-86.7368099
11
131.0039791
21
-81.9486575
0
LINE
8
0
6
CONTINUOUS
10
131.0039791
20
-81.9486575
11
126.2158267
21
-99.8182853
0
LINE
8
0
6
CONTINUOUS
10
131.1333885
20
-81.4656946
11
149.0030163
21
-86.253847
0
LINE
8
0
6
CONTINUOUS
10
149.0030163
20
-86.253847
11
153.7911687
21
-68.3842192
0
LINE
8
0
6
CONTINUOUS
10
153.7911687
20
-68.3842192
11
135.9215409
21
-63.5960668
0
LINE
8
0
6
CONTINUOUS
10
135.9215409
20
-63.5960668
11
131.1333885
21
-81.4656946
0
LINE
8
0
6
CONTINUOUS
10
136.0509504
20
-63.1131039
11
153.9205782
21
-67.9012563
0
LINE
8
0
6
CONTINUOUS
10
153.9205782
20
-67.9012563
11
158.7087306
21
-50.0316285
0
LINE
8
0
6
CONTINUOUS
10
158.7087306
20
-50.0316285
11
140.8391028
21
-45.2434761
0
LINE
8
0
6
CONTINUOUS
10
140.8391028
20
-45.2434761
11
136.0509504
21
-63.1131039
0
LINE
8
0
6
CONTINUOUS
10
134.086246
20
-143.8558431
11
151.9558738
21
-148.6439955
0
LINE
8
0
6
CONTINUOUS
10
151.9558738
20
-148.6439955
11
156.7440262
21
-130.7743677
0
LINE
8
0
6
CONTINUOUS
10
156.7440262
20
-130.7743677
11
138.8743984
21
-125.9862153
0
LINE
8
0
6
CONTINUOUS
10
138.8743984
20
-125.9862153
11
134.086246
21
-143.8558431
0
LINE
8
0
6
CONTINUOUS
10
139.0038079
20
-125.5032524
11
156.8734357
21
-130.2914048
0
LINE
8
0
6
CONTINUOUS
10
156.8734357
20
-130.2914048
11
161.6615881
21
-112.421777
0
LINE
8
0
6
CONTINUOUS
10
161.6615881
20
-112.421777
11
143.7919603
21
-107.6336246
0
LINE
8
0
6
CONTINUOUS
10
143.7919603
20
-107.6336246
11
139.0038079
21
-125.5032524
0
LINE
8
0
6
CONTINUOUS
10
143.9213698
20
-107.1506617
11
161.7909976
21
-111.9388141
0
LINE
8
0
6
CONTINUOUS
10
161.7909976
20
-111.9388141
11
166.57915
21
-94.0691863
0
LINE
8
0
6
CONTINUOUS
10
166.57915
20
-94.0691863
11
148.7095222
21
-89.2810339
0
LINE
8
0
6
CONTINUOUS
10
148.7095222
20
-89.2810339
11
143.9213698
21
-107.1506617
0
LINE
8
0
6
CONTINUOUS
10
148.8389316
20
-88.798071
11
166.7085594
21
-93.5862234
0
LINE
8
0
6
CONTINUOUS
10
166.7085594
20
-93.5862234
11
171.4967118
21
-75.7165956
0
LINE
8
0
6
CONTINUOUS
10
171.4967118
20
-75.7165956
11
153.627084
21
-70.9284432
0
LINE
8
0
6
CONTINUOUS
10
153.627084
20
-70.9284432
11
148.8389316
21
-88.798071
0
LINE
8
0
6
CONTINUOUS
10
153.7564935
20
-70.4454803
11
171.6261213
21
-75.2336327
0
LINE
8
0
6
CONTINUOUS
10
171.6261213
20
-75.2336327
11
176.4142737
21
-57.3640049
0
LINE
8
0
6
CONTINUOUS
10
176.4142737
20
-57.3640049
11
158.5446459
21
-52.5758525
0
LINE
8
0
6
CONTINUOUS
10
158.5446459
20
-52.5758525
11
153.7564935
21
-70.4454803
0
LINE
8
0
6
CONTINUOUS
10
151.7917891
20
-151.1882196
11
169.6614169
21
-155.976372
0
LINE
8
0
6
CONTINUOUS
10
169.6614169
20
-155.976372
11
174.4495693
21
-138.1067442
0
LINE
8
0
6
CONTINUOUS
10
174.4495693
20
-138.1067442
11
156.5799415
21
-133.3185918
0
LINE
8
0
6
CONTINUOUS
10
156.5799415
20
-133.3185918
11
151.7917891
21
-151.1882196
0
LINE
8
0
6
CONTINUOUS
10
156.709351
20
-132.8356289
11
174.5789788
21
-137.6237813
0
LINE
8
0
6
CONTINUOUS
10
174.5789788
20
-137.6237813
11
179.3671312
21
-119.7541535
0
LINE
8
0
6
CONTINUOUS
10
179.3671312
20
-119.7541535
11
161.4975034
21
-114.9660011
0
LINE
8
0
6
CONTINUOUS
10
161.4975034
20
-114.9660011
11
156.709351
21
-132.8356289
0
LINE
8
0
6
CONTINUOUS
10
161.6269128
20
-114.4830382
11
179.4965406
21
-119.2711906
0
LINE
8
0
6
CONTINUOUS
10
179.4965406
20
-119.2711906
11
184.284693
21
-101.4015628
0
LINE
8
0
6
CONTINUOUS
10
184.284693
20
-101.4015628
11
166.4150652
21
-96.6134104
0
LINE
8
0
6
CONTINUOUS
10
166.4150652
20
-96.6134104
11
161.6269128
21
-114.4830382
0
LINE
8
0
6
CONTINUOUS
10
166.5444747
20
-96.1304475
11
184.4141025
21
-100.9185999
0
LINE
8
0
6
CONTINUOUS
10
184.4141025
20
-100.9185999
11
189.2022549
21
-83.0489721
0
LINE
8
0
6
CONTINUOUS
10
189.2022549
20
-83.0489721
11
171.3326271
21
-78.2608197
0
LINE
8
0
6
CONTINUOUS
10
171.3326271
20
-78.2608197
11
166.5444747
21
-96.1304475
0
LINE
8
0
6
CONTINUOUS
10
171.4620366
20
-77.7778568
11
189.3316644
21
-82.5660092
0
LINE
8
0
6
CONTINUOUS
10
189.3316644
20
-82.5660092
11
194.1198168
21
-64.6963814
0
LINE
8
0
6
CONTINUOUS
10
194.1198168
20
-64.6963814
11
176.250189
21
-59.908229
0
LINE
8
0
6
CONTINUOUS
10
176.250189
20
-59.908229
11
171.4620366
21
-77.7778568
0
LINE
8
0
6
CONTINUOUS
10
144.58387
20
-170.0563257
11
160.60534
21
-179.3063257
0
LINE
8
0
6
CONTINUOUS
10
160.60534
20
-179.3063257
11
169.85534
21
-163.2848557
0
LINE
8
0
6
CONTINUOUS
10
169.85534
20
-163.2848557
11
153.83387
21
-154.0348557
0
LINE
8
0
6
CONTINUOUS
10
153.83387
20
-154.0348557
11
144.58387
21
-170.0563257
0
LINE
8
0
6
CONTINUOUS
10
161.0383527
20
-179.5563257
11
177.0598227
21
-188.8063257
0
LINE
8
0
6
CONTINUOUS
10
177.0598227
20
-188.8063257
11
186.3098227
21
-172.7848557
0
LINE
8
0
6
CONTINUOUS
10
186.3098227
20
-172.7848557
11
170.2883527
21
-163.5348557
0
LINE
8
0
6
CONTINUOUS
10
170.2883527
20
-163.5348557
11
161.0383527
21
-179.5563257
0
LINE
8
0
6
CONTINUOUS
10
170.5383527
20
-163.101843
11
186.5598227
21
-172.351843
0
LINE
8
0
6
CONTINUOUS
10
186.5598227
20
-172.351843
11
195.8098227
21
-156.330373
0
LINE
8
0
6
CONTINUOUS
10
195.8098227
20
-156.330373
11
179.7883527
21
-147.080373
0
LINE
8
0
6
CONTINUOUS
10
179.7883527
20
-147.080373
11
170.5383527
21
-163.101843
0
LINE
8
0
6
CONTINUOUS
10
177.4928353
20
-189.0563257
11
193.5143053
21
-198.3063257
0
LINE
8
0
6
CONTINUOUS
10
193.5143053
20
-198.3063257
11
202.7643053
21
-182.2848557
0
LINE
8
0
6
CONTINUOUS
10
202.7643053
20
-182.2848557
11
186.7428353
21
-173.0348557
0
LINE
8
0
6
CONTINUOUS
10
186.7428353
20
-173.0348557
11
177.4928353
21
-189.0563257
0
LINE
8
0
6
CONTINUOUS
10
329.1804376
20
-133.8033772
11
347.0500654
21
-129.0152248
0
LINE
8
0
6
CONTINUOUS
10
347.0500654
20
-129.0152248
11
342.261913
21
-111.145597
0
LINE
8
0
6
CONTINUOUS
10
342.261913
20
-111.145597
11
324.3922852
21
-115.9337494
0
LINE
8
0
6
CONTINUOUS
10
324.3922852
20
-115.9337494
11
329.1804376
21
-133.8033772
0
LINE
8
0
6
CONTINUOUS
10
324.2628757
20
-115.4507865
11
342.1325035
21
-110.6626341
0
LINE
8
0
6
CONTINUOUS
10
342.1325035
20
-110.6626341
11
337.3443511
21
-92.7930063
0
LINE
8
0
6
CONTINUOUS
10
337.3443511
20
-92.7930063
11
319.4747233
21
-97.5811587
0
LINE
8
0
6
CONTINUOUS
10
319.4747233
20
-97.5811587
11
324.2628757
21
-115.4507865
0
LINE
8
0
6
CONTINUOUS
10
319.3453139
20
-97.0981958
11
337.2149417
21
-92.3100434
0
LINE
8
0
6
CONTINUOUS
10
337.2149417
20
-92.3100434
11
332.4267893
21
-74.4404156
0
LINE
8
0
6
CONTINUOUS
10
332.4267893
20
-74.4404156
11
314.5571615
21
-79.228568
0
LINE
8
0
6
CONTINUOUS
10
314.5571615
20
-79.228568
11
319.3453139
21
-97.0981958
0
LINE
8
0
6
CONTINUOUS
10
314.427752
20
-78.7456051
11
332.2973798
21
-73.9574527
0
LINE
8
0
6
CONTINUOUS
10
332.2973798
20
-73.9574527
11
327.5092274
21
-56.0878249
0
LINE
8
0
6
CONTINUOUS
10
327.5092274
20
-56.0878249
11
309.6395996
21
-60.8759773
0
LINE
8
0
6
CONTINUOUS
10
309.6395996
20
-60.8759773
11
314.427752
21
-78.7456051
0
LINE
8
0
6
CONTINUOUS
10
309.5101902
20
-60.3930144
11
327.379818
21
-55.604862
0
LINE
8
0
6
CONTINUOUS
10
327.379818
20
-55.604862
11
322.5916656
21
-37.7352342
0
LINE
8
0
6
CONTINUOUS
10
322.5916656
20
-37.7352342
11
304.7220378
21
-42.5233866
0
LINE
8
0
6
CONTINUOUS
10
304.7220378
20
-42.5233866
11
309.5101902
21
-60.3930144
0
LINE
8
0
6
CONTINUOUS
10
310.8278469
20
-138.7209391
11
328.6974747
21
-133.9327867
0
LINE
8
0
6
CONTINUOUS
10
328.6974747
20
-133.9327867
11
323.9093223
21
-116.0631589
0
LINE
8
0
6
CONTINUOUS
10
323.9093223
20
-116.0631589
11
306.0396945
21
-120.8513113
0
LINE
8
0
6
CONTINUOUS
10
306.0396945
20
-120.8513113
11
310.8278469
21
-138.7209391
0
LINE
8
0
6
CONTINUOUS
10
305.910285
20
-120.3683484
11
323.7799128
21
-115.580196
0
LINE
8
0
6
CONTINUOUS
10
323.7799128
20
-115.580196
11
318.9917604
21
-97.7105682
0
LINE
8
0
6
CONTINUOUS
10
318.9917604
20
-97.7105682
11
301.1221326
21
-102.4987206
0
LINE
8
0
6
CONTINUOUS
10
301.1221326
20
-102.4987206
11
305.910285
21
-120.3683484
0
LINE
8
0
6
CONTINUOUS
10
300.9927232
20
-102.0157577
11
318.862351
21
-97.2276053
0
LINE
8
0
6
CONTINUOUS
10
318.862351
20
-97.2276053
11
314.0741986
21
-79.3579775
0
LINE
8
0
6
CONTINUOUS
10
314.0741986
20
-79.3579775
11
296.2045708
21
-84.1461299
0
LINE
8
0
6
CONTINUOUS
10
296.2045708
20
-84.1461299
11
300.9927232
21
-102.0157577
0
LINE
8
0
6
CONTINUOUS
10
296.0751613
20
-83.663167
11
313.9447891
21
-78.8750146
0
LINE
8
0
6
CONTINUOUS
10
313.9447891
20
-78.8750146
11
309.1566367
21
-61.0053868
0
LINE
8
0
6
CONTINUOUS
10
309.1566367
20
-61.0053868
11
291.2870089
21
-65.7935392
0
LINE
8
0
6
CONTINUOUS
10
291.2870089
20
-65.7935392
11
296.0751613
21
-83.663167
0
LINE
8
0
6
CONTINUOUS
10
291.1575995
20
-65.3105763
11
309.0272273
21
-60.5224239
0
LINE
8
0
6
CONTINUOUS
10
309.0272273
20
-60.5224239
11
304.2390749
21
-42.6527961
0
LINE
8
0
6
CONTINUOUS
10
304.2390749
20
-42.6527961
11
286.3694471
21
-47.4409485
0
LINE
8
0
6
CONTINUOUS
10
286.3694471
20
-47.4409485
11
291.1575995
21
-65.3105763
0
LINE
8
0
6
CONTINUOUS
10
291.181161
20
-138.8088718
11
309.0507888
21
-134.0207194
0
LINE
8
0
6
CONTINUOUS
10
309.0507888
20
-134.0207194
11
304.2626364
21
-116.1510916
0
LINE
8
0
6
CONTINUOUS
10
304.2626364
20
-116.1510916
11
286.3930086
21
-120.939244
0
LINE
8
0
6
CONTINUOUS
10
286.3930086
20
-120.939244
11
291.181161
21
-138.8088718
0
LINE
8
0
6
CONTINUOUS
10
286.2635991
20
-120.4562811
11
304.1332269
21
-115.6681287
0
LINE
8
0
6
CONTINUOUS
10
304.1332269
20
-115.6681287
11
299.3450745
21
-97.7985009
0
LINE
8
0
6
CONTINUOUS
10
299.3450745
20
-97.7985009
11
281.4754467
21
-102.5866533
0
LINE
8
0
6
CONTINUOUS
10
281.4754467
20
-102.5866533
11
286.2635991
21
-120.4562811
0
LINE
8
0
6
CONTINUOUS
10
281.3460372
20
-102.1036904
11
299.215665
21
-97.315538
0
LINE
8
0
6
CONTINUOUS
10
299.215665
20
-97.315538
11
294.4275126
21
-79.4459102
0
LINE
8
0
6
CONTINUOUS
10
294.4275126
20
-79.4459102
11
276.5578848
21
-84.2340626
0
LINE
8
0
6
CONTINUOUS
10
276.5578848
20
-84.2340626
11
281.3460372
21
-102.1036904
0
LINE
8
0
6
CONTINUOUS
10
276.4284754
20
-83.7510997
11
294.2981032
21
-78.9629473
0
LINE
8
0
6
CONTINUOUS
10
294.2981032
20
-78.9629473
11
289.5099508
21
-61.0933195
0
LINE
8
0
6
CONTINUOUS
10
289.5099508
20
-61.0933195
11
271.640323
21
-65.8814719
0
LINE
8
0
6
CONTINUOUS
10
271.640323
20
-65.8814719
11
276.4284754
21
-83.7510997
0
LINE
8
0
6
CONTINUOUS
10
271.5109135
20
-65.398509
11
289.3805413
21
-60.6103566
0
LINE
8
0
6
CONTINUOUS
10
289.3805413
20
-60.6103566
11
284.5923889
21
-42.7407288
0
LINE
8
0
6
CONTINUOUS
10
284.5923889
20
-42.7407288
11
266.7227611
21
-47.5288812
0
LINE
8
0
6
CONTINUOUS
10
266.7227611
20
-47.5288812
11
271.5109135
21
-65.398509
0
LINE
8
0
6
CONTINUOUS
10
272.1815226
20
-141.3116191
11
290.0511504
21
-136.5234667
0
LINE
8
0
6
CONTINUOUS
10
290.0511504
20
-136.5234667
11
285.262998
21
-118.6538389
0
LINE
8
0
6
CONTINUOUS
10
285.262998
20
-118.6538389
11
267.3933702
21
-123.4419913
0
LINE
8
0
6
CONTINUOUS
10
267.3933702
20
-123.4419913
11
272.1815226
21
-141.3116191
0
LINE
8
0
6
CONTINUOUS
10
267.2639608
20
-122.9590284
11
285.1335886
21
-118.170876
0
LINE
8
0
6
CONTINUOUS
10
285.1335886
20
-118.170876
11
280.3454362
21
-100.3012482
0
LINE
8
0
6
CONTINUOUS
10
280.3454362
20
-100.3012482
11
262.4758084
21
-105.0894006
0
LINE
8
0
6
CONTINUOUS
10
262.4758084
20
-105.0894006
11
267.2639608
21
-122.9590284
0
LINE
8
0
6
CONTINUOUS
10
262.3463989
20
-104.6064377
11
280.2160267
21
-99.8182853
0
LINE
8
0
6
CONTINUOUS
10
280.2160267
20
-99.8182853
11
275.4278743
21
-81.9486575
0
LINE
8
0
6
CONTINUOUS
10
275.4278743
20
-81.9486575
11
257.5582465
21
-86.7368099
0
LINE
8
0
6
CONTINUOUS
10
257.5582465
20
-86.7368099
11
262.3463989
21
-104.6064377
0
LINE
8
0
6
CONTINUOUS
10
257.4288371
20
-86.253847
11
275.2984649
21
-81.4656946
0
LINE
8
0
6
CONTINUOUS
10
275.2984649
20
-81.4656946
11
270.5103125
21
-63.5960668
0
LINE
8
0
6
CONTINUOUS
10
270.5103125
20
-63.5960668
11
252.6406847
21
-68.3842192
0
LINE
8
0
6
CONTINUOUS
10
252.6406847
20
-68.3842192
11
257.4288371
21
-86.253847
0
LINE
8
0
6
CONTINUOUS
10
252.5112752
20
-67.9012563
11
270.380903
21
-63.1131039
0
LINE
8
0
6
CONTINUOUS
10
270.380903
20
-63.1131039
11
265.5927506
21
-45.2434761
0
LINE
8
0
6
CONTINUOUS
10
265.5927506
20
-45.2434761
11
247.7231228
21
-50.0316285
0
LINE
8
0
6
CONTINUOUS
10
247.7231228
20
-50.0316285
11
252.5112752
21
-67.9012563
0
LINE
8
0
6
CONTINUOUS
10
254.4759796
20
-148.6439955
11
272.3456074
21
-143.8558431
0
LINE
8
0
6
CONTINUOUS
10
272.3456074
20
-143.8558431
11
267.557455
21
-125.9862153
0
LINE
8
0
6
CONTINUOUS
10
267.557455
20
-125.9862153
11
249.6878272
21
-130.7743677
0
LINE
8
0
6
CONTINUOUS
10
249.6878272
20
-130.7743677
11
254.4759796
21
-148.6439955
0
LINE
8
0
6
CONTINUOUS
10
249.5584177
20
-130.2914048
11
267.4280455
21
-125.5032524
0
LINE
8
0
6
CONTINUOUS
10
267.4280455
20
-125.5032524
11
262.6398931
21
-107.6336246
0
LINE
8
0
6
CONTINUOUS
10
262.6398931
20
-107.6336246
11
244.7702653
21
-112.421777
0
LINE
8
0
6
CONTINUOUS
10
244.7702653
20
-112.421777
11
249.5584177
21
-130.2914048
0
LINE
8
0
6
CONTINUOUS
10
244.6408558
20
-111.9388141
11
262.5104836
21
-107.1506617
0
LINE
8
0
6
CONTINUOUS
10
262.5104836
20
-107.1506617
11
257.7223312
21
-89.2810339
0
LINE
8
0
6
CONTINUOUS
10
257.7223312
20
-89.2810339
11
239.8527034
21
-94.0691863
0
LINE
8
0
6
CONTINUOUS
10
239.8527034
20
-94.0691863
11
244.6408558
21
-111.9388141
0
LINE
8
0
6
CONTINUOUS
10
239.723294
20
-93.5862234
11
257.5929218
21
-88.798071
0
LINE
8
0
6
CONTINUOUS
10
257.5929218
20
-88.798071
11
252.8047694
21
-70.9284432
0
LINE
8
0
6
CONTINUOUS
10
252.8047694
20
-70.9284432
11
234.9351416
21
-75.7165956
0
LINE
8
0
6
CONTINUOUS
10
234.9351416
20
-75.7165956
11
239.723294
21
-93.5862234
0
LINE
8
0
6
CONTINUOUS
10
234.8057321
20
-75.2336327
11
252.6753599
21
-70.4454803
0
LINE
8
0
6
CONTINUOUS
10
252.6753599
20
-70.4454803
11
247.8872075
21
-52.5758525
0
LINE
8
0
6
CONTINUOUS
10
247.8872075
20
-52.5758525
11
230.0175797
21
-57.3640049
0
LINE
8
0
6
CONTINUOUS
10
230.0175797
20
-57.3640049
11
234.8057321
21
-75.2336327
0
LINE
8
0
6
CONTINUOUS
10
236.7704365
20
-155.976372
11
254.6400643
21
-151.1882196
0
LINE
8
0
6
CONTINUOUS
10
254.6400643
20
-151.1882196
11
249.8519119
21
-133.3185918
0
LINE
8
0
6
CONTINUOUS
10
249.8519119
20
-133.3185918
11
231.9822841
21
-138.1067442
0
LINE
8
0
6
CONTINUOUS
10
231.9822841
20
-138.1067442
11
236.7704365
21
-155.976372
0
LINE
8
0
6
CONTINUOUS
10
231.8528746
20
-137.6237813
11
249.7225024
21
-132.8356289
0
LINE
8
0
6
CONTINUOUS
10
249.7225024
20
-132.8356289
11
244.93435
21
-114.9660011
0
LINE
8
0
6
CONTINUOUS
10
244.93435
20
-114.9660011
11
227.0647222
21
-119.7541535
0
LINE
8
0
6
CONTINUOUS
10
227.0647222
20
-119.7541535
11
231.8528746
21
-137.6237813
0
LINE
8
0
6
CONTINUOUS
10
226.9353128
20
-119.2711906
11
244.8049406
21
-114.4830382
0
LINE
8
0
6
CONTINUOUS
10
244.8049406
20
-114.4830382
11
240.0167882
21
-96.6134104
0
LINE
8
0
6
CONTINUOUS
10
240.0167882
20
-96.6134104
11
222.1471604
21
-101.4015628
0
LINE
8
0
6
CONTINUOUS
10
222.1471604
20
-101.4015628
11
226.9353128
21
-119.2711906
0
LINE
8
0
6
CONTINUOUS
10
222.0177509
20
-100.9185999
11
239.8873787
21
-96.1304475
0
LINE
8
0
6
CONTINUOUS
10
239.8873787
20
-96.1304475
11
235.0992263
21
-78.2608197
0
LINE
8
0
6
CONTINUOUS
10
235.0992263
20
-78.2608197
11
217.2295985
21
-83.0489721
0
LINE
8
0
6
CONTINUOUS
10
217.2295985
20
-83.0489721
11
222.0177509
21
-100.9185999
0
LINE
8
0
6
CONTINUOUS
10
217.100189
20
-82.5660092
11
234.9698168
21
-77.7778568
0
LINE
8
0
6
CONTINUOUS
10
234.9698168
20
-77.7778568
11
230.1816644
21
-59.908229
0
LINE
8
0
6
CONTINUOUS
10
230.1816644
20
-59.908229
11
212.3120366
21
-64.6963814
0
LINE
8
0
6
CONTINUOUS
10
212.3120366
20
-64.6963814
11
217.100189
21
-82.5660092
0
LINE
8
0
6
CONTINUOUS
10
245.8265134
20
-179.3063257
11
261.8479834
21
-170.0563257
0
LINE
8
0
6
CONTINUOUS
10
261.8479834
20
-170.0563257
11
252.5979834
21
-154.0348557
0
LINE
8
0
6
CONTINUOUS
10
252.5979834
20
-154.0348557
11
236.5765134
21
-163.2848557
0
LINE
8
0
6
CONTINUOUS
10
236.5765134
20
-163.2848557
11
245.8265134
21
-179.3063257
0
LINE
8
0
6
CONTINUOUS
10
229.3720307
20
-188.8063257
11
245.3935007
21
-179.5563257
0
LINE
8
0
6
CONTINUOUS
10
245.3935007
20
-179.5563257
11
236.1435007
21
-163.5348557
0
LINE
8
0
6
CONTINUOUS
10
236.1435007
20
-163.5348557
11
220.1220307
21
-172.7848557
0
LINE
8
0
6
CONTINUOUS
10
220.1220307
20
-172.7848557
11
229.3720307
21
-188.8063257
0
LINE
8
0
6
CONTINUOUS
10
219.8720307
20
-172.351843
11
235.8935007
21
-163.101843
0
LINE
8
0
6
CONTINUOUS
10
235.8935007
20
-163.101843
11
226.6435007
21
-147.080373
0
LINE
8
0
6
CONTINUOUS
10
226.6435007
20
-147.080373
11
210.6220307
21
-156.330373
0
LINE
8
0
6
CONTINUOUS
10
210.6220307
20
-156.330373
11
219.8720307
21
-172.351843
0
LINE
8
0
6
CONTINUOUS
10
212.9175481
20
-198.3063257
11
228.9390181
21
-189.0563257
0
LINE
8
0
6
CONTINUOUS
10
228.9390181
20
-189.0563257
11
219.6890181
21
-173.0348557
0
LINE
8
0
6
CONTINUOUS
10
219.6890181
20
-173.0348557
11
203.6675481
21
-182.2848557
0
LINE
8
0
6
CONTINUOUS
10
203.6675481
20
-182.2848557
11
212.9175481
21
-198.3063257
0
ENDSEC
0
EOF