0
SECTION
2
HEADER
9
$INSUNITS
70
4
0
ENDSEC
0
SECTION
2
TABLES
0
TABLE
2
LTYPE
0
LTYPE
72
65
70
0
2
CONTINUOUS
3
______
73
0
40
0
0
LTYPE
72
65
70
0
2
DASHED
3
_ _ _ 
73
2
40
7.5
49
5
49
-2.5
0
LTYPE
72
65
70
0
2
DOTTED
3
. . . 
73
2
40
1.5
49
0.5
49
-1
0
ENDTAB
0
TABLE
2
LAYER
0
ENDTAB
0
ENDSEC
0
SECTION
2
ENTITIES
0
LINE
8
0
6
CONTINUOUS
10
59.0756018
20
-129.1920015
11
95.7807832
21
-139.0271253
0
LINE
8
0
6
CONTINUOUS
10
59.0756018
20
-129.1920015
11
83.6634111
21
-37.429048
0
LINE
8
0
6
CONTINUOUS
10
83.6634111
20
-37.429048
11
120.3685925
21
-47.2641718
0
LINE
8
0
6
CONTINUOUS
10
95.7807832
20
-139.0271253
11
97.0748784
21
-134.1974961
0
LINE
8
0
6
CONTINUOUS
10
97.0748784
20
-134.1974961
11
115.4274691
21
-139.115058
0
LINE
8
0
6
CONTINUOUS
10
115.4274691
20
-139.115058
11
116.0745168
21
-136.7002434
0
LINE
8
0
6
CONTINUOUS
10
140.0152785
20
-47.3521045
11
121.6626878
21
-42.4345426
0
LINE
8
0
6
CONTINUOUS
10
121.6626878
20
-42.4345426
11
120.3685925
21
-47.2641718
0
LINE
8
0
6
CONTINUOUS
10
116.0745168
20
-136.7002434
11
134.4271075
21
-141.6178053
0
LINE
8
0
6
CONTINUOUS
10
158.3678692
20
-52.2696663
11
159.0149168
21
-49.8548518
0
LINE
8
0
6
CONTINUOUS
10
159.0149168
20
-49.8548518
11
140.6623261
21
-44.9372899
0
LINE
8
0
6
CONTINUOUS
10
140.6623261
20
-44.9372899
11
140.0152785
21
-47.3521045
0
LINE
8
0
6
CONTINUOUS
10
133.7800598
20
-144.0326198
11
152.1326505
21
-148.9501817
0
LINE
8
0
6
CONTINUOUS
10
134.4271075
20
-141.6178053
11
133.7800598
21
-144.0326198
0
LINE
8
0
6
CONTINUOUS
10
176.0734123
20
-59.6020428
11
176.7204599
21
-57.1872282
0
LINE
8
0
6
CONTINUOUS
10
176.7204599
20
-57.1872282
11
158.3678692
21
-52.2696663
0
LINE
8
0
6
CONTINUOUS
10
151.4856029
20
-151.3649963
11
169.8381936
21
-156.2825582
0
LINE
8
0
6
CONTINUOUS
10
169.8381936
20
-156.2825582
11
194.426003
21
-64.5196047
0
LINE
8
0
6
CONTINUOUS
10
152.1326505
20
-148.9501817
11
151.4856029
21
-151.3649963
0
LINE
8
0
6
CONTINUOUS
10
194.426003
20
-64.5196047
11
176.0734123
21
-59.6020428
0
LINE
8
0
6
CONTINUOUS
10
144.2423637
20
-170.147832
11
160.6968463
21
-179.647832
0
LINE
8
0
6
CONTINUOUS
10
170.1968463
20
-163.1933494
11
153.7423637
21
-153.6933494
0
LINE
8
0
6
CONTINUOUS
10
153.7423637
20
-153.6933494
11
144.2423637
21
-170.147832
0
LINE
8
0
6
CONTINUOUS
10
160.6968464
20
-179.647832
11
193.6058116
21
-198.647832
0
LINE
8
0
6
CONTINUOUS
10
186.651329
20
-172.6933493
11
196.151329
21
-156.2388667
0
LINE
8
0
6
CONTINUOUS
10
196.151329
20
-156.2388667
11
179.6968464
21
-146.7388667
0
LINE
8
0
6
CONTINUOUS
10
179.6968464
20
-146.7388667
11
170.1968464
21
-163.1933493
0
LINE
8
0
6
CONTINUOUS
10
193.6058116
20
-198.647832
11
203.1058116
21
-182.1933494
0
LINE
8
0
6
CONTINUOUS
10
203.1058116
20
-182.1933494
11
186.651329
21
-172.6933494
0
LINE
8
0
6
CONTINUOUS
10
310.6510702
20
-139.0271253
11
347.3562516
21
-129.1920015
0
LINE
8
0
6
CONTINUOUS
10
322.7684423
20
-37.429048
11
347.3562516
21
-129.1920015
0
LINE
8
0
6
CONTINUOUS
10
286.0632609
20
-47.2641718
11
322.7684423
21
-37.429048
0
LINE
8
0
6
CONTINUOUS
10
309.356975
20
-134.1974961
11
310.6510702
21
-139.0271253
0
LINE
8
0
6
CONTINUOUS
10
291.0043843
20
-139.115058
11
309.356975
21
-134.1974961
0
LINE
8
0
6
CONTINUOUS
10
290.3573366
20
-136.7002434
11
291.0043843
21
-139.115058
0
LINE
8
0
6
CONTINUOUS
10
286.0632609
20
-47.2641718
11
284.7691656
21
-42.4345426
0
LINE
8
0
6
CONTINUOUS
10
284.7691656
20
-42.4345426
11
266.4165749
21
-47.3521045
0
LINE
8
0
6
CONTINUOUS
10
272.0047459
20
-141.6178053
11
290.3573366
21
-136.7002434
0
LINE
8
0
6
CONTINUOUS
10
266.4165749
20
-47.3521045
11
265.7695273
21
-44.9372899
0
LINE
8
0
6
CONTINUOUS
10
265.7695273
20
-44.9372899
11
247.4169366
21
-49.8548518
0
LINE
8
0
6
CONTINUOUS
10
247.4169366
20
-49.8548518
11
248.0639842
21
-52.2696663
0
LINE
8
0
6
CONTINUOUS
10
254.2992029
20
-148.9501817
11
272.6517936
21
-144.0326198
0
LINE
8
0
6
CONTINUOUS
10
272.6517936
20
-144.0326198
11
272.0047459
21
-141.6178053
0
LINE
8
0
6
CONTINUOUS
10
248.0639842
20
-52.2696663
11
229.7113935
21
-57.1872282
0
LINE
8
0
6
CONTINUOUS
10
229.7113935
20
-57.1872282
11
230.3584411
21
-59.6020428
0
LINE
8
0
6
CONTINUOUS
10
236.5936598
20
-156.2825582
11
254.9462505
21
-151.3649963
0
LINE
8
0
6
CONTINUOUS
10
254.9462505
20
-151.3649963
11
254.2992029
21
-148.9501817
0
LINE
8
0
6
CONTINUOUS
10
212.0058504
20
-64.5196047
11
236.5936598
21
-156.2825582
0
LINE
8
0
6
CONTINUOUS
10
230.3584411
20
-59.6020428
11
212.0058504
21
-64.5196047
0
LINE
8
0
6
CONTINUOUS
10
245.7350071
20
-179.647832
11
262.1894897
21
-170.147832
0
LINE
8
0
6
CONTINUOUS
10
262.1894897
20
-170.147832
11
252.6894897
21
-153.6933494
0
LINE
8
0
6
CONTINUOUS
10
252.6894897
20
-153.6933494
11
236.2350071
21
-163.1933494
0
LINE
8
0
6
CONTINUOUS
10
212.8260418
20
-198.647832
11
245.735007
21
-179.647832
0
LINE
8
0
6
CONTINUOUS
10
236.235007
20
-163.1933493
11
226.735007
21
-146.7388667
0
LINE
8
0
6
CONTINUOUS
10
226.735007
20
-146.7388667
11
210.2805244
21
-156.2388667
0
LINE
8
0
6
CONTINUOUS
10
210.2805244
20
-156.2388667
11
219.7805244
21
-172.6933493
0
LINE
8
0
6
CONTINUOUS
10
219.7805244
20
-172.6933494
11
203.3260418
21
-182.1933494
0
LINE
8
0
6
CONTINUOUS
10
203.3260418
20
-182.1933494
11
212.8260418
21
-198.647832
0
ENDSEC
0
EOF